<mxfile host="app.diagrams.net" agent="Mozilla/5.0 (X11; Linux x86_64) AppleWebKit/537.36 (KHTML, like Gecko) Chrome/130.0.0.0 Safari/537.36" version="24.8.3" pages="3">
  <diagram name="SD1" id="IPUVujdmmtZPShG0CMn7">
    <mxGraphModel dx="1805" dy="633" grid="1" gridSize="10" guides="1" tooltips="1" connect="1" arrows="1" fold="1" page="1" pageScale="1" pageWidth="827" pageHeight="1169" math="0" shadow="0">
      <root>
        <mxCell id="0" />
        <mxCell id="1" parent="0" />
        <mxCell id="OSnAuyY-agooGBxpE260-1" value="sd: Patient.makeAppointment(complaints: string, datetimes: string[*])" style="shape=umlFrame;whiteSpace=wrap;html=1;pointerEvents=0;width=310;height=40;swimlaneFillColor=default;" parent="1" vertex="1">
          <mxGeometry x="-510" y="80" width="1020" height="600" as="geometry" />
        </mxCell>
        <mxCell id="OSnAuyY-agooGBxpE260-57" value="" style="endArrow=none;dashed=1;html=1;rounded=0;exitX=0.054;exitY=0.997;exitDx=0;exitDy=0;exitPerimeter=0;targetPerimeterSpacing=0;sourcePerimeterSpacing=0;endSize=13;" parent="1" source="OSnAuyY-agooGBxpE260-1" edge="1">
          <mxGeometry width="50" height="50" relative="1" as="geometry">
            <mxPoint x="-460" y="450" as="sourcePoint" />
            <mxPoint x="-455" y="230" as="targetPoint" />
          </mxGeometry>
        </mxCell>
        <mxCell id="OSnAuyY-agooGBxpE260-51" value="TimeSheet" style="shape=umlLifeline;perimeter=lifelinePerimeter;whiteSpace=wrap;html=1;container=1;dropTarget=0;collapsible=0;recursiveResize=0;outlineConnect=0;portConstraint=eastwest;newEdgeStyle={&quot;curved&quot;:0,&quot;rounded&quot;:0};" parent="1" vertex="1">
          <mxGeometry x="190" y="160" width="100" height="520" as="geometry" />
        </mxCell>
        <mxCell id="OSnAuyY-agooGBxpE260-50" value="MedicalWorker" style="shape=umlLifeline;perimeter=lifelinePerimeter;whiteSpace=wrap;html=1;container=1;dropTarget=0;collapsible=0;recursiveResize=0;outlineConnect=0;portConstraint=eastwest;newEdgeStyle={&quot;curved&quot;:0,&quot;rounded&quot;:0};" parent="1" vertex="1">
          <mxGeometry x="20" y="160" width="100" height="520" as="geometry" />
        </mxCell>
        <mxCell id="OSnAuyY-agooGBxpE260-48" value="Reception" style="shape=umlLifeline;perimeter=lifelinePerimeter;whiteSpace=wrap;html=1;container=1;dropTarget=0;collapsible=0;recursiveResize=0;outlineConnect=0;portConstraint=eastwest;newEdgeStyle={&quot;curved&quot;:0,&quot;rounded&quot;:0};" parent="1" vertex="1">
          <mxGeometry x="-316" y="160" width="102" height="520" as="geometry" />
        </mxCell>
        <mxCell id="OSnAuyY-agooGBxpE260-47" value="Department" style="shape=umlLifeline;perimeter=lifelinePerimeter;whiteSpace=wrap;html=1;container=1;dropTarget=0;collapsible=0;recursiveResize=0;outlineConnect=0;portConstraint=eastwest;newEdgeStyle={&quot;curved&quot;:0,&quot;rounded&quot;:0};" parent="1" vertex="1">
          <mxGeometry x="-135" y="160" width="100" height="520" as="geometry" />
        </mxCell>
        <mxCell id="OSnAuyY-agooGBxpE260-37" value="" style="html=1;points=[[0,0,0,0,5],[0,1,0,0,-5],[1,0,0,0,5],[1,1,0,0,-5]];perimeter=orthogonalPerimeter;outlineConnect=0;targetShapes=umlLifeline;portConstraint=eastwest;newEdgeStyle={&quot;curved&quot;:0,&quot;rounded&quot;:0};" parent="OSnAuyY-agooGBxpE260-47" vertex="1">
          <mxGeometry x="45" y="186" width="10" height="57" as="geometry" />
        </mxCell>
        <mxCell id="OSnAuyY-agooGBxpE260-9" value="Patient" style="shape=umlActor;verticalLabelPosition=bottom;verticalAlign=top;html=1;" parent="1" vertex="1">
          <mxGeometry x="-470" y="150" width="30" height="60" as="geometry" />
        </mxCell>
        <mxCell id="OSnAuyY-agooGBxpE260-10" value="" style="html=1;points=[[0,0,0,0,5],[0,1,0,0,-5],[1,0,0,0,5],[1,1,0,0,-5]];perimeter=orthogonalPerimeter;outlineConnect=0;targetShapes=umlLifeline;portConstraint=eastwest;newEdgeStyle={&quot;curved&quot;:0,&quot;rounded&quot;:0};" parent="1" vertex="1">
          <mxGeometry x="-460" y="250" width="10" height="420" as="geometry" />
        </mxCell>
        <mxCell id="OSnAuyY-agooGBxpE260-11" value="" style="html=1;points=[[0,0,0,0,5],[0,1,0,0,-5],[1,0,0,0,5],[1,1,0,0,-5]];perimeter=orthogonalPerimeter;outlineConnect=0;targetShapes=umlLifeline;portConstraint=eastwest;newEdgeStyle={&quot;curved&quot;:0,&quot;rounded&quot;:0};" parent="1" vertex="1">
          <mxGeometry x="-270" y="290" width="10" height="370" as="geometry" />
        </mxCell>
        <mxCell id="OSnAuyY-agooGBxpE260-17" value="" style="endArrow=blockThin;html=1;rounded=0;endFill=1;" parent="1" target="OSnAuyY-agooGBxpE260-11" edge="1">
          <mxGeometry width="50" height="50" relative="1" as="geometry">
            <mxPoint x="-450" y="298" as="sourcePoint" />
            <mxPoint x="-320" y="298" as="targetPoint" />
          </mxGeometry>
        </mxCell>
        <mxCell id="OSnAuyY-agooGBxpE260-19" value="makeAppointment(&lt;div&gt;complaints,&amp;nbsp;&lt;span style=&quot;background-color: initial;&quot;&gt;datetimes)&lt;/span&gt;&lt;/div&gt;" style="text;html=1;align=center;verticalAlign=middle;resizable=0;points=[];autosize=1;strokeColor=none;fillColor=none;" parent="1" vertex="1">
          <mxGeometry x="-430" y="260" width="140" height="40" as="geometry" />
        </mxCell>
        <mxCell id="OSnAuyY-agooGBxpE260-23" value="dep = chooseDepartment(&lt;div&gt;complaints)&lt;/div&gt;" style="html=1;align=left;spacingLeft=2;endArrow=block;rounded=0;edgeStyle=orthogonalEdgeStyle;curved=0;rounded=0;" parent="1" target="OSnAuyY-agooGBxpE260-11" edge="1">
          <mxGeometry x="-0.7647" y="28" relative="1" as="geometry">
            <mxPoint x="-260" y="312" as="sourcePoint" />
            <Array as="points">
              <mxPoint x="-230" y="312" />
              <mxPoint x="-230" y="342" />
            </Array>
            <mxPoint x="-250" y="342" as="targetPoint" />
            <mxPoint as="offset" />
          </mxGeometry>
        </mxCell>
        <mxCell id="OSnAuyY-agooGBxpE260-38" value="getStaff()" style="html=1;verticalAlign=bottom;endArrow=block;curved=0;rounded=0;" parent="1" edge="1" source="OSnAuyY-agooGBxpE260-11">
          <mxGeometry width="80" relative="1" as="geometry">
            <mxPoint x="-250" y="356" as="sourcePoint" />
            <mxPoint x="-90" y="356.0000000000001" as="targetPoint" />
            <mxPoint as="offset" />
          </mxGeometry>
        </mxCell>
        <mxCell id="OSnAuyY-agooGBxpE260-39" value="mc = medicalWorkers" style="html=1;verticalAlign=bottom;endArrow=open;dashed=1;endSize=8;curved=0;rounded=0;" parent="1" edge="1" target="OSnAuyY-agooGBxpE260-11">
          <mxGeometry relative="1" as="geometry">
            <mxPoint x="-90" y="392" as="sourcePoint" />
            <mxPoint x="-250" y="392" as="targetPoint" />
          </mxGeometry>
        </mxCell>
        <mxCell id="OSnAuyY-agooGBxpE260-40" value="ref" style="shape=umlFrame;whiteSpace=wrap;html=1;pointerEvents=0;gradientColor=none;swimlaneFillColor=default;width=90;height=20;" parent="1" vertex="1">
          <mxGeometry x="30" y="440" width="230" height="90" as="geometry" />
        </mxCell>
        <mxCell id="OSnAuyY-agooGBxpE260-45" value="sd checkAvailability" style="text;html=1;align=center;verticalAlign=middle;resizable=0;points=[];autosize=1;strokeColor=none;fillColor=none;" parent="1" vertex="1">
          <mxGeometry x="80" y="475" width="130" height="30" as="geometry" />
        </mxCell>
        <mxCell id="OSnAuyY-agooGBxpE260-55" value="status" style="html=1;verticalAlign=bottom;endArrow=open;dashed=1;endSize=8;curved=0;rounded=0;" parent="1" edge="1">
          <mxGeometry relative="1" as="geometry">
            <mxPoint x="-270" y="656" as="sourcePoint" />
            <mxPoint x="-450" y="656" as="targetPoint" />
            <Array as="points">
              <mxPoint x="-340" y="656" />
              <mxPoint x="-410" y="656" />
            </Array>
          </mxGeometry>
        </mxCell>
        <mxCell id="OSnAuyY-agooGBxpE260-60" value="loop [for each worker in medicalWorkers]" style="shape=umlFrame;whiteSpace=wrap;html=1;pointerEvents=0;width=250;height=30;" parent="1" vertex="1">
          <mxGeometry x="-280" y="432.5" width="780" height="207.5" as="geometry" />
        </mxCell>
        <mxCell id="OSnAuyY-agooGBxpE260-64" value="check(worker)" style="html=1;verticalAlign=bottom;endArrow=block;curved=0;rounded=0;" parent="1" edge="1">
          <mxGeometry width="80" relative="1" as="geometry">
            <mxPoint x="-260" y="482" as="sourcePoint" />
            <mxPoint x="30" y="482" as="targetPoint" />
          </mxGeometry>
        </mxCell>
        <mxCell id="OSnAuyY-agooGBxpE260-65" value="break [ans=true]" style="shape=umlFrame;whiteSpace=wrap;html=1;pointerEvents=0;width=110;height=20;" parent="1" vertex="1">
          <mxGeometry x="-316" y="510" width="806" height="120" as="geometry" />
        </mxCell>
        <mxCell id="OSnAuyY-agooGBxpE260-67" value="" style="html=1;points=[[0,0,0,0,5],[0,1,0,0,-5],[1,0,0,0,5],[1,1,0,0,-5]];perimeter=orthogonalPerimeter;outlineConnect=0;targetShapes=umlLifeline;portConstraint=eastwest;newEdgeStyle={&quot;curved&quot;:0,&quot;rounded&quot;:0};" parent="1" vertex="1">
          <mxGeometry x="-264" y="555" width="10" height="70" as="geometry" />
        </mxCell>
        <mxCell id="OSnAuyY-agooGBxpE260-68" value="" style="html=1;align=left;spacingLeft=2;endArrow=block;rounded=0;edgeStyle=orthogonalEdgeStyle;curved=0;rounded=0;" parent="1" target="OSnAuyY-agooGBxpE260-67" edge="1">
          <mxGeometry relative="1" as="geometry">
            <mxPoint x="-260" y="541" as="sourcePoint" />
            <Array as="points">
              <mxPoint x="-230" y="571" />
            </Array>
          </mxGeometry>
        </mxCell>
        <mxCell id="OSnAuyY-agooGBxpE260-69" value="&lt;span style=&quot;text-align: left; text-wrap-mode: wrap; background-color: rgb(251, 251, 251); font-size: 9px;&quot;&gt;&lt;font style=&quot;font-size: 9px;&quot;&gt;scheduleAppointment(Patient&lt;/font&gt;&lt;/span&gt;&lt;div style=&quot;font-size: 9px;&quot;&gt;&lt;span style=&quot;text-align: left; text-wrap-mode: wrap; background-color: rgb(251, 251, 251); font-size: 9px;&quot;&gt;&lt;font style=&quot;font-size: 9px;&quot;&gt;complaints,&lt;/font&gt;&lt;/span&gt;&lt;/div&gt;&lt;div style=&quot;font-size: 9px;&quot;&gt;&lt;span style=&quot;text-align: left; text-wrap-mode: wrap; background-color: rgb(251, 251, 251); font-size: 9px;&quot;&gt;&lt;font style=&quot;font-size: 9px;&quot;&gt;datetime, worker)&lt;/font&gt;&lt;/span&gt;&lt;/div&gt;" style="edgeLabel;html=1;align=center;verticalAlign=middle;resizable=0;points=[];fontSize=9;" parent="OSnAuyY-agooGBxpE260-68" vertex="1" connectable="0">
          <mxGeometry x="0.0987" y="-1" relative="1" as="geometry">
            <mxPoint x="71" y="-7" as="offset" />
          </mxGeometry>
        </mxCell>
        <mxCell id="xRTvOlvAQEUQsUmZZIJ9-2" value="ans" style="html=1;verticalAlign=bottom;endArrow=open;dashed=1;endSize=8;curved=0;rounded=0;exitX=0.003;exitY=0.684;exitDx=0;exitDy=0;exitPerimeter=0;" parent="1" source="OSnAuyY-agooGBxpE260-40" target="OSnAuyY-agooGBxpE260-11" edge="1">
          <mxGeometry relative="1" as="geometry">
            <mxPoint x="-60" y="503" as="sourcePoint" />
            <mxPoint x="-140" y="503" as="targetPoint" />
          </mxGeometry>
        </mxCell>
        <mxCell id="xRTvOlvAQEUQsUmZZIJ9-3" value="&lt;span style=&quot;text-align: left; text-wrap-mode: wrap; background-color: rgb(251, 251, 251);&quot;&gt;&lt;font style=&quot;font-size: 8px;&quot;&gt;updateSchedule(datetime, worker)&lt;/font&gt;&lt;/span&gt;" style="html=1;verticalAlign=bottom;endArrow=block;curved=0;rounded=0;" parent="1" edge="1">
          <mxGeometry x="0.2434" width="80" relative="1" as="geometry">
            <mxPoint x="-254" y="619" as="sourcePoint" />
            <mxPoint x="240" y="619" as="targetPoint" />
            <mxPoint as="offset" />
          </mxGeometry>
        </mxCell>
        <mxCell id="r-moTCt53zOHv2VmeQEz-1" value=":Appointment" style="shape=umlLifeline;perimeter=lifelinePerimeter;whiteSpace=wrap;html=1;container=1;dropTarget=0;collapsible=0;recursiveResize=0;outlineConnect=0;portConstraint=eastwest;newEdgeStyle={&quot;curved&quot;:0,&quot;rounded&quot;:0};" parent="1" vertex="1">
          <mxGeometry x="350" y="560" width="100" height="120" as="geometry" />
        </mxCell>
        <mxCell id="r-moTCt53zOHv2VmeQEz-3" value="new(Appointment)" style="html=1;verticalAlign=bottom;endArrow=open;curved=0;rounded=0;dashed=1;dashPattern=8 8;endFill=0;" parent="1" edge="1">
          <mxGeometry width="80" relative="1" as="geometry">
            <mxPoint x="-254.00000000000023" y="581" as="sourcePoint" />
            <mxPoint x="350" y="581" as="targetPoint" />
          </mxGeometry>
        </mxCell>
      </root>
    </mxGraphModel>
  </diagram>
  <diagram id="a7ns2n16CXBNmLfBDM0L" name="SD2">
    <mxGraphModel dx="2828" dy="760" grid="1" gridSize="10" guides="1" tooltips="1" connect="1" arrows="1" fold="1" page="1" pageScale="1" pageWidth="827" pageHeight="1169" math="0" shadow="0">
      <root>
        <mxCell id="0" />
        <mxCell id="1" parent="0" />
        <mxCell id="6RctxTQbn7jA8UyajEi0-1" value="&lt;span style=&quot;text-wrap-mode: nowrap;&quot;&gt;sd checkAvailability&lt;/span&gt;" style="shape=umlFrame;whiteSpace=wrap;html=1;pointerEvents=0;gradientColor=none;swimlaneFillColor=default;width=170;height=30;" parent="1" vertex="1">
          <mxGeometry x="-1538.35" y="40" width="550" height="390" as="geometry" />
        </mxCell>
        <mxCell id="6RctxTQbn7jA8UyajEi0-2" value=":MedicalWorker" style="shape=umlLifeline;perimeter=lifelinePerimeter;whiteSpace=wrap;html=1;container=1;dropTarget=0;collapsible=0;recursiveResize=0;outlineConnect=0;portConstraint=eastwest;newEdgeStyle={&quot;curved&quot;:0,&quot;rounded&quot;:0};" parent="1" vertex="1">
          <mxGeometry x="-1388.35" y="90" width="100" height="340" as="geometry" />
        </mxCell>
        <mxCell id="E8eBlwKSeClwFS0IbUn1-1" value="" style="html=1;points=[[0,0,0,0,5],[0,1,0,0,-5],[1,0,0,0,5],[1,1,0,0,-5]];perimeter=orthogonalPerimeter;outlineConnect=0;targetShapes=umlLifeline;portConstraint=eastwest;newEdgeStyle={&quot;curved&quot;:0,&quot;rounded&quot;:0};" parent="6RctxTQbn7jA8UyajEi0-2" vertex="1">
          <mxGeometry x="45" y="50" width="10" height="280" as="geometry" />
        </mxCell>
        <mxCell id="6RctxTQbn7jA8UyajEi0-3" value=":TimeSheet" style="shape=umlLifeline;perimeter=lifelinePerimeter;whiteSpace=wrap;html=1;container=1;dropTarget=0;collapsible=0;recursiveResize=0;outlineConnect=0;portConstraint=eastwest;newEdgeStyle={&quot;curved&quot;:0,&quot;rounded&quot;:0};" parent="1" vertex="1">
          <mxGeometry x="-1098.35" y="90" width="100" height="340" as="geometry" />
        </mxCell>
        <mxCell id="WRwWexdqhhIisoKOPa96-3" value="" style="html=1;points=[[0,0,0,0,5],[0,1,0,0,-5],[1,0,0,0,5],[1,1,0,0,-5]];perimeter=orthogonalPerimeter;outlineConnect=0;targetShapes=umlLifeline;portConstraint=eastwest;newEdgeStyle={&quot;curved&quot;:0,&quot;rounded&quot;:0};" parent="6RctxTQbn7jA8UyajEi0-3" vertex="1">
          <mxGeometry x="45" y="70" width="10" height="50" as="geometry" />
        </mxCell>
        <mxCell id="E8eBlwKSeClwFS0IbUn1-3" value="" style="html=1;verticalAlign=bottom;endArrow=block;curved=0;rounded=0;" parent="1" target="E8eBlwKSeClwFS0IbUn1-1" edge="1">
          <mxGeometry width="80" relative="1" as="geometry">
            <mxPoint x="-1538.35" y="160" as="sourcePoint" />
            <mxPoint x="-1458.35" y="160" as="targetPoint" />
          </mxGeometry>
        </mxCell>
        <mxCell id="WRwWexdqhhIisoKOPa96-4" value="getSchedule(worker)" style="html=1;verticalAlign=bottom;endArrow=block;curved=0;rounded=0;" parent="1" edge="1">
          <mxGeometry width="80" relative="1" as="geometry">
            <mxPoint x="-1333.35" y="170" as="sourcePoint" />
            <mxPoint x="-1053.35" y="170" as="targetPoint" />
          </mxGeometry>
        </mxCell>
        <mxCell id="WRwWexdqhhIisoKOPa96-5" value="timesheets" style="html=1;verticalAlign=bottom;endArrow=open;dashed=1;endSize=8;curved=0;rounded=0;exitX=0;exitY=1;exitDx=0;exitDy=-5;exitPerimeter=0;" parent="1" source="WRwWexdqhhIisoKOPa96-3" target="E8eBlwKSeClwFS0IbUn1-1" edge="1">
          <mxGeometry relative="1" as="geometry">
            <mxPoint x="-1188.35" y="300" as="sourcePoint" />
            <mxPoint x="-1268.35" y="300" as="targetPoint" />
          </mxGeometry>
        </mxCell>
        <mxCell id="WRwWexdqhhIisoKOPa96-6" value="loop [for each ts in timesheets]" style="shape=umlFrame;whiteSpace=wrap;html=1;pointerEvents=0;width=146;height=30;" parent="1" vertex="1">
          <mxGeometry x="-1354.35" y="230" width="236" height="150" as="geometry" />
        </mxCell>
        <mxCell id="WRwWexdqhhIisoKOPa96-7" value="break [ts in datetimes]" style="shape=umlFrame;whiteSpace=wrap;html=1;pointerEvents=0;width=140;height=30;" parent="1" vertex="1">
          <mxGeometry x="-1388.35" y="275" width="220" height="85" as="geometry" />
        </mxCell>
        <mxCell id="WRwWexdqhhIisoKOPa96-8" value="true" style="html=1;verticalAlign=bottom;endArrow=open;dashed=1;endSize=8;curved=0;rounded=0;entryX=0.001;entryY=0.766;entryDx=0;entryDy=0;entryPerimeter=0;" parent="1" source="E8eBlwKSeClwFS0IbUn1-1" target="6RctxTQbn7jA8UyajEi0-1" edge="1">
          <mxGeometry relative="1" as="geometry">
            <mxPoint x="-1188.35" y="230" as="sourcePoint" />
            <mxPoint x="-1268.35" y="230" as="targetPoint" />
          </mxGeometry>
        </mxCell>
        <mxCell id="WRwWexdqhhIisoKOPa96-9" value="false" style="html=1;verticalAlign=bottom;endArrow=open;dashed=1;endSize=8;curved=0;rounded=0;exitX=0;exitY=1;exitDx=0;exitDy=-5;exitPerimeter=0;entryX=-0.003;entryY=0.963;entryDx=0;entryDy=0;entryPerimeter=0;" parent="1" source="E8eBlwKSeClwFS0IbUn1-1" target="6RctxTQbn7jA8UyajEi0-1" edge="1">
          <mxGeometry relative="1" as="geometry">
            <mxPoint x="-1188.35" y="230" as="sourcePoint" />
            <mxPoint x="-1268.35" y="230" as="targetPoint" />
          </mxGeometry>
        </mxCell>
      </root>
    </mxGraphModel>
  </diagram>
  <diagram id="8V-jSC9RnYeYwfoJHyFh" name="SD3">
    <mxGraphModel dx="978" dy="633" grid="1" gridSize="10" guides="1" tooltips="1" connect="1" arrows="1" fold="1" page="1" pageScale="1" pageWidth="827" pageHeight="1169" math="0" shadow="0">
      <root>
        <mxCell id="0" />
        <mxCell id="1" parent="0" />
        <mxCell id="6pYHSUjwthRizevOBF00-13" value="" style="endArrow=none;dashed=1;html=1;rounded=0;entryX=0.533;entryY=1.333;entryDx=0;entryDy=0;entryPerimeter=0;exitX=0.459;exitY=0.996;exitDx=0;exitDy=0;exitPerimeter=0;" parent="1" source="BXQw4HetUYAuLP_DdRt9-1" target="BXQw4HetUYAuLP_DdRt9-3" edge="1">
          <mxGeometry width="50" height="50" relative="1" as="geometry">
            <mxPoint x="450" y="380" as="sourcePoint" />
            <mxPoint x="500" y="330" as="targetPoint" />
          </mxGeometry>
        </mxCell>
        <mxCell id="6pYHSUjwthRizevOBF00-12" value="" style="endArrow=none;dashed=1;html=1;rounded=0;exitX=0.073;exitY=0.999;exitDx=0;exitDy=0;exitPerimeter=0;" parent="1" source="BXQw4HetUYAuLP_DdRt9-1" edge="1">
          <mxGeometry width="50" height="50" relative="1" as="geometry">
            <mxPoint x="160" y="360" as="sourcePoint" />
            <mxPoint x="125" y="160" as="targetPoint" />
          </mxGeometry>
        </mxCell>
        <mxCell id="BXQw4HetUYAuLP_DdRt9-1" value="cameAppoitment(p: Patient)" style="shape=umlFrame;whiteSpace=wrap;html=1;pointerEvents=0;width=180;height=30;" parent="1" vertex="1">
          <mxGeometry x="60" y="30" width="890" height="670" as="geometry" />
        </mxCell>
        <mxCell id="BXQw4HetUYAuLP_DdRt9-2" value="Patient" style="shape=umlActor;verticalLabelPosition=bottom;verticalAlign=top;html=1;" parent="1" vertex="1">
          <mxGeometry x="110" y="80" width="30" height="60" as="geometry" />
        </mxCell>
        <mxCell id="BXQw4HetUYAuLP_DdRt9-3" value="Doctor" style="shape=umlActor;verticalLabelPosition=bottom;verticalAlign=top;html=1;" parent="1" vertex="1">
          <mxGeometry x="454" y="80" width="30" height="60" as="geometry" />
        </mxCell>
        <mxCell id="BXQw4HetUYAuLP_DdRt9-4" value=":Appointment" style="shape=umlLifeline;perimeter=lifelinePerimeter;whiteSpace=wrap;html=1;container=1;dropTarget=0;collapsible=0;recursiveResize=0;outlineConnect=0;portConstraint=eastwest;newEdgeStyle={&quot;curved&quot;:0,&quot;rounded&quot;:0};" parent="1" vertex="1">
          <mxGeometry x="250" y="90" width="100" height="610" as="geometry" />
        </mxCell>
        <mxCell id="BXQw4HetUYAuLP_DdRt9-8" value="" style="html=1;points=[[0,0,0,0,5],[0,1,0,0,-5],[1,0,0,0,5],[1,1,0,0,-5]];perimeter=orthogonalPerimeter;outlineConnect=0;targetShapes=umlLifeline;portConstraint=eastwest;newEdgeStyle={&quot;curved&quot;:0,&quot;rounded&quot;:0};" parent="BXQw4HetUYAuLP_DdRt9-4" vertex="1">
          <mxGeometry x="45" y="90" width="10" height="50" as="geometry" />
        </mxCell>
        <mxCell id="BXQw4HetUYAuLP_DdRt9-5" value=":MedicalCard" style="shape=umlLifeline;perimeter=lifelinePerimeter;whiteSpace=wrap;html=1;container=1;dropTarget=0;collapsible=0;recursiveResize=0;outlineConnect=0;portConstraint=eastwest;newEdgeStyle={&quot;curved&quot;:0,&quot;rounded&quot;:0};" parent="1" vertex="1">
          <mxGeometry x="600" y="90" width="100" height="610" as="geometry" />
        </mxCell>
        <mxCell id="BXQw4HetUYAuLP_DdRt9-24" value="" style="html=1;points=[[0,0,0,0,5],[0,1,0,0,-5],[1,0,0,0,5],[1,1,0,0,-5]];perimeter=orthogonalPerimeter;outlineConnect=0;targetShapes=umlLifeline;portConstraint=eastwest;newEdgeStyle={&quot;curved&quot;:0,&quot;rounded&quot;:0};" parent="BXQw4HetUYAuLP_DdRt9-5" vertex="1">
          <mxGeometry x="45" y="250" width="10" height="300" as="geometry" />
        </mxCell>
        <mxCell id="BXQw4HetUYAuLP_DdRt9-6" value=":Diagnosis" style="shape=umlLifeline;perimeter=lifelinePerimeter;whiteSpace=wrap;html=1;container=1;dropTarget=0;collapsible=0;recursiveResize=0;outlineConnect=0;portConstraint=eastwest;newEdgeStyle={&quot;curved&quot;:0,&quot;rounded&quot;:0};" parent="1" vertex="1">
          <mxGeometry x="820" y="90" width="100" height="610" as="geometry" />
        </mxCell>
        <mxCell id="6pYHSUjwthRizevOBF00-9" value="" style="html=1;points=[[0,0,0,0,5],[0,1,0,0,-5],[1,0,0,0,5],[1,1,0,0,-5]];perimeter=orthogonalPerimeter;outlineConnect=0;targetShapes=umlLifeline;portConstraint=eastwest;newEdgeStyle={&quot;curved&quot;:0,&quot;rounded&quot;:0};" parent="BXQw4HetUYAuLP_DdRt9-6" vertex="1">
          <mxGeometry x="45" y="470" width="10" height="40" as="geometry" />
        </mxCell>
        <mxCell id="BXQw4HetUYAuLP_DdRt9-7" value="" style="html=1;points=[[0,0,0,0,5],[0,1,0,0,-5],[1,0,0,0,5],[1,1,0,0,-5]];perimeter=orthogonalPerimeter;outlineConnect=0;targetShapes=umlLifeline;portConstraint=eastwest;newEdgeStyle={&quot;curved&quot;:0,&quot;rounded&quot;:0};" parent="1" vertex="1">
          <mxGeometry x="120" y="170" width="10" height="500" as="geometry" />
        </mxCell>
        <mxCell id="BXQw4HetUYAuLP_DdRt9-9" value="cameAppointment(p: Patient)" style="html=1;verticalAlign=bottom;endArrow=block;curved=0;rounded=0;" parent="1" target="BXQw4HetUYAuLP_DdRt9-8" edge="1">
          <mxGeometry width="80" relative="1" as="geometry">
            <mxPoint x="130" y="189" as="sourcePoint" />
            <mxPoint x="290" y="190" as="targetPoint" />
          </mxGeometry>
        </mxCell>
        <mxCell id="BXQw4HetUYAuLP_DdRt9-10" value="" style="html=1;points=[[0,0,0,0,5],[0,1,0,0,-5],[1,0,0,0,5],[1,1,0,0,-5]];perimeter=orthogonalPerimeter;outlineConnect=0;targetShapes=umlLifeline;portConstraint=eastwest;newEdgeStyle={&quot;curved&quot;:0,&quot;rounded&quot;:0};" parent="1" vertex="1">
          <mxGeometry x="464" y="215" width="10" height="445" as="geometry" />
        </mxCell>
        <mxCell id="BXQw4HetUYAuLP_DdRt9-13" value="getComplaints()" style="html=1;verticalAlign=bottom;endArrow=block;curved=0;rounded=0;" parent="1" edge="1">
          <mxGeometry width="80" relative="1" as="geometry">
            <mxPoint x="130" y="247" as="sourcePoint" />
            <mxPoint x="464" y="247" as="targetPoint" />
          </mxGeometry>
        </mxCell>
        <mxCell id="BXQw4HetUYAuLP_DdRt9-16" value="complaintsAnalysis(&lt;div&gt;complains: string[*])&lt;/div&gt;" style="html=1;align=left;spacingLeft=2;endArrow=block;rounded=0;edgeStyle=orthogonalEdgeStyle;curved=0;rounded=0;" parent="1" edge="1">
          <mxGeometry relative="1" as="geometry">
            <mxPoint x="474" y="252" as="sourcePoint" />
            <Array as="points">
              <mxPoint x="504" y="252" />
              <mxPoint x="504" y="282" />
            </Array>
            <mxPoint x="474" y="282" as="targetPoint" />
          </mxGeometry>
        </mxCell>
        <mxCell id="BXQw4HetUYAuLP_DdRt9-25" value="getPatientDiagnosis(p:Patient)" style="html=1;verticalAlign=bottom;endArrow=block;curved=0;rounded=0;" parent="1" edge="1">
          <mxGeometry width="80" relative="1" as="geometry">
            <mxPoint x="474" y="351.5" as="sourcePoint" />
            <mxPoint x="645" y="351.5" as="targetPoint" />
          </mxGeometry>
        </mxCell>
        <mxCell id="BXQw4HetUYAuLP_DdRt9-26" value="d = Diagnosis[*]" style="html=1;verticalAlign=bottom;endArrow=open;dashed=1;endSize=8;curved=0;rounded=0;exitX=0;exitY=1;exitDx=0;exitDy=-5;exitPerimeter=0;" parent="1" edge="1">
          <mxGeometry relative="1" as="geometry">
            <mxPoint x="645" y="382" as="sourcePoint" />
            <mxPoint x="474" y="382" as="targetPoint" />
          </mxGeometry>
        </mxCell>
        <mxCell id="6pYHSUjwthRizevOBF00-2" value="res = patientCheckup(&lt;div&gt;p:Patient)&lt;/div&gt;" style="html=1;align=left;spacingLeft=2;endArrow=block;rounded=0;edgeStyle=orthogonalEdgeStyle;curved=0;rounded=0;" parent="1" target="BXQw4HetUYAuLP_DdRt9-10" edge="1">
          <mxGeometry relative="1" as="geometry">
            <mxPoint x="474" y="410" as="sourcePoint" />
            <Array as="points">
              <mxPoint x="504" y="410" />
              <mxPoint x="504" y="440" />
            </Array>
            <mxPoint x="479" y="440" as="targetPoint" />
          </mxGeometry>
        </mxCell>
        <mxCell id="6pYHSUjwthRizevOBF00-3" value="" style="html=1;verticalAlign=bottom;endArrow=block;curved=0;rounded=0;entryX=0;entryY=0;entryDx=0;entryDy=5;entryPerimeter=0;" parent="1" source="BXQw4HetUYAuLP_DdRt9-8" target="BXQw4HetUYAuLP_DdRt9-10" edge="1">
          <mxGeometry width="80" relative="1" as="geometry">
            <mxPoint x="530" y="350" as="sourcePoint" />
            <mxPoint x="610" y="350" as="targetPoint" />
          </mxGeometry>
        </mxCell>
        <mxCell id="6pYHSUjwthRizevOBF00-4" value="opt&amp;nbsp;&lt;span style=&quot;text-wrap-mode: nowrap;&quot;&gt;[bad_treatment = true]&lt;/span&gt;" style="shape=umlFrame;whiteSpace=wrap;html=1;pointerEvents=0;width=176;height=30;" parent="1" vertex="1">
          <mxGeometry x="454" y="510" width="431" height="100" as="geometry" />
        </mxCell>
        <mxCell id="6pYHSUjwthRizevOBF00-5" value="updateDiagnosis(d: Diagnosis)" style="html=1;verticalAlign=bottom;endArrow=block;curved=0;rounded=0;" parent="1" target="BXQw4HetUYAuLP_DdRt9-24" edge="1">
          <mxGeometry width="80" relative="1" as="geometry">
            <mxPoint x="474" y="558" as="sourcePoint" />
            <mxPoint x="570" y="558" as="targetPoint" />
          </mxGeometry>
        </mxCell>
        <mxCell id="6pYHSUjwthRizevOBF00-8" value="updatetreatment()" style="html=1;verticalAlign=bottom;endArrow=block;curved=0;rounded=0;" parent="1" edge="1">
          <mxGeometry width="80" relative="1" as="geometry">
            <mxPoint x="655" y="570.5" as="sourcePoint" />
            <mxPoint x="865.0000000000002" y="570.5" as="targetPoint" />
          </mxGeometry>
        </mxCell>
        <mxCell id="6pYHSUjwthRizevOBF00-11" value="status" style="html=1;verticalAlign=bottom;endArrow=open;dashed=1;endSize=8;curved=0;rounded=0;" parent="1" edge="1">
          <mxGeometry relative="1" as="geometry">
            <mxPoint x="464" y="643.5" as="sourcePoint" />
            <mxPoint x="130" y="643.5" as="targetPoint" />
          </mxGeometry>
        </mxCell>
      </root>
    </mxGraphModel>
  </diagram>
</mxfile>
